<svg width="24" height="24" xmlns="http://www.w3.org/2000/svg">

 <g>
  <title>background</title>
  <rect fill="none" id="canvas_background" height="402" width="582" y="-1" x="-1"/>
 </g>
 <g>
  <title>Layer 1</title>
  <path fill="#ffffff" id="svg_1" d="m12.326,0c-6.579,0.001 -10.076,4.216 -10.076,8.812c0,2.131 1.191,4.79 3.098,5.633c0.544,0.245 0.472,-0.054 0.94,-1.844c0.037,-0.149 0.018,-0.278 -0.102,-0.417c-2.726,-3.153 -0.532,-9.635 5.751,-9.635c9.093,0 7.394,12.582 1.582,12.582c-1.498,0 -2.614,-1.176 -2.261,-2.631c0.428,-1.733 1.266,-3.596 1.266,-4.845c0,-3.148 -4.69,-2.681 -4.69,1.49c0,1.289 0.456,2.159 0.456,2.159s-1.509,6.096 -1.789,7.235c-0.474,1.928 0.064,5.049 0.111,5.318c0.029,0.148 0.195,0.195 0.288,0.073c0.149,-0.195 1.973,-2.797 2.484,-4.678c0.186,-0.685 0.949,-3.465 0.949,-3.465c0.503,0.908 1.953,1.668 3.498,1.668c4.596,0 7.918,-4.04 7.918,-9.053c-0.016,-4.806 -4.129,-8.402 -9.423,-8.402z"/>
 </g>
</svg>