<svg width="613.451" height="613.451" xmlns="http://www.w3.org/2000/svg">

 <g>
  <title>background</title>
  <rect fill="none" id="canvas_background" height="402" width="582" y="-1" x="-1"/>
 </g>
 <g>
  <title>Layer 1</title>
  <g id="svg_1">
   <g id="svg_2">
    <path fill="#ffffff" id="svg_3" d="m122.969,445.239c-61.568,-81.588 -61.678,-194.85 -0.344,-276.557l-54.578,-54.578c-90.858,112.321 -90.724,273.492 0.373,385.684l54.549,-54.549z"/>
    <path fill="#ffffff" id="svg_4" d="m114.879,67.401l54.626,54.625c81.645,-60.722 194.439,-60.43 275.729,0.952l54.55,-54.549c-111.933,-90.882 -272.617,-91.245 -384.905,-1.028z"/>
    <path fill="#ffffff" id="svg_5" d="m432.852,180.592c-7.727,-7.727 -16.008,-14.544 -24.681,-20.554c-60.416,-41.884 -140.89,-42.185 -201.583,-0.928c-9.161,6.225 -17.887,13.359 -26.01,21.482c-7.87,7.87 -14.798,16.314 -20.889,25.159c-41.865,60.803 -41.75,141.735 0.334,202.433c6.01,8.673 12.828,16.954 20.555,24.676c8.262,8.262 17.15,15.511 26.488,21.816c60.478,40.822 140.421,40.512 200.621,-0.927c8.846,-6.092 17.289,-13.02 25.159,-20.89c8.118,-8.118 15.252,-16.85 21.482,-26.01c40.841,-60.091 40.961,-139.579 0.334,-199.77c-6.301,-9.336 -13.549,-18.225 -21.81,-26.487z"/>
    <path fill="#ffffff" id="svg_6" d="m169.974,491.774l-54.636,54.631c112.116,89.729 272.24,89.391 383.997,-1.014l-54.573,-54.573c-81.1,60.918 -193.34,61.21 -274.788,0.956z"/>
    <path fill="#ffffff" id="svg_7" d="m491.766,169.978c60.072,81.157 59.957,192.928 -0.344,273.965l54.621,54.621c89.763,-111.724 89.873,-271.364 0.354,-383.217l-54.631,54.631z"/>
   </g>
  </g>
  <g id="svg_8"/>
  <g id="svg_9"/>
  <g id="svg_10"/>
  <g id="svg_11"/>
  <g id="svg_12"/>
  <g id="svg_13"/>
  <g id="svg_14"/>
  <g id="svg_15"/>
  <g id="svg_16"/>
  <g id="svg_17"/>
  <g id="svg_18"/>
  <g id="svg_19"/>
  <g id="svg_20"/>
  <g id="svg_21"/>
  <g id="svg_22"/>
 </g>
</svg>