<svg width="578.924" height="578.924" xmlns="http://www.w3.org/2000/svg">

 <g>
  <title>background</title>
  <rect fill="none" id="canvas_background" height="402" width="582" y="-1" x="-1"/>
 </g>
 <g>
  <title>Layer 1</title>
  <g id="svg_1">
   <g id="svg_2">
    <path fill="#659fa5" stroke="#84D3DB" id="svg_3" d="m198.689,290.949c-1.167,0 -2.553,-0.344 -4.045,-0.976l-88.864,-37.915c-4.6,-1.951 -8.664,-2.955 -12.125,-2.955c-5.852,0 -8.645,2.917 -9.792,4.657c-0.679,1.033 -1.415,2.831 -1.492,5.202c-46.407,6.073 -82.371,45.766 -82.371,93.789c0,52.221 42.477,94.688 94.688,94.688c37.399,0 69.71,-21.859 85.077,-53.416c5.757,2.524 11.8,4.064 17.337,4.064l167.918,0c12.346,0 23.678,-8.157 28.229,-19.402c11.312,39.627 47.773,68.754 90.986,68.754c52.213,0 94.689,-42.477 94.689,-94.688c0,-39.254 -24.031,-73.01 -58.141,-87.334c2.361,-4.036 3.758,-8.367 3.758,-12.575c0,-10.155 -5.729,-26.077 -13.033,-36.232l-36.902,-51.245c-7.381,-10.261 -22.738,-20.866 -34.951,-24.136l-29.92,-8.023c-4.189,-1.128 -8.568,-1.721 -12.633,-1.721c-9.4,0 -16.074,2.983 -18.771,8.376c-4.58,9.17 4.398,20.779 15.635,27.521l15.816,9.496c3.156,1.893 4.285,3.863 4.303,5.078c0.01,1.233 -1.117,2.668 -3.107,3.93c-2.438,1.54 -4.465,2.419 -5.977,2.831c-2.104,-8.979 -13.99,-14.765 -25.742,-15.979l-106,-10.968c-13.703,-1.435 -29.816,6.837 -36.72,18.599l-8.147,13.923c-4.399,7.488 -15.874,14.057 -24.547,14.057l-26.88,0c-8.558,0 -19.498,-6.665 -23.438,-14.268l-6.665,-12.89c-6.245,-12.078 -21.774,-21.535 -35.372,-21.535l-72.217,0c-3.366,0 -13.636,0 -15.529,7.832c-1.894,7.832 7.239,12.518 10.232,14.066l152.216,78.145c7.774,3.997 15.233,15.147 15.94,23.858l0.077,0.976c0.201,2.524 -0.201,4.562 -1.147,5.575c-0.192,0.2 -0.775,0.841 -2.373,0.841z"/>
   </g>
  </g>
  <g id="svg_4"/>
  <g id="svg_5"/>
  <g id="svg_6"/>
  <g id="svg_7"/>
  <g id="svg_8"/>
  <g id="svg_9"/>
  <g id="svg_10"/>
  <g id="svg_11"/>
  <g id="svg_12"/>
  <g id="svg_13"/>
  <g id="svg_14"/>
  <g id="svg_15"/>
  <g id="svg_16"/>
  <g id="svg_17"/>
  <g id="svg_18"/>
 </g>
</svg>